HIERARCHY
ROOT SimulationBone
{
	OFFSET 0.000000 0.000000 0.000000
	CHANNELS 6 Xposition Yposition Zposition Zrotation Yrotation Xrotation 
	JOINT Hips
	{
		OFFSET 0.000000 0.000000 0.000000
		CHANNELS 6 Xposition Yposition Zposition Zrotation Yrotation Xrotation 
		JOINT LeftUpLeg
		{
			OFFSET 0.103462 1.857826 10.548503
			CHANNELS 3 Zrotation Yrotation Xrotation
			JOINT LeftLeg
			{
				OFFSET 43.500000 -0.000031 0.000000
				CHANNELS 3 Zrotation Yrotation Xrotation
				JOINT LeftFoot
				{
					OFFSET 42.372200 0.000008 -0.000003
					CHANNELS 3 Zrotation Yrotation Xrotation
					JOINT LeftToe
					{
						OFFSET 17.300003 0.000000 0.000002
						CHANNELS 3 Zrotation Yrotation Xrotation
						End Site
						{
							OFFSET 0.000000 0.000000 0.000000
						}
					}
				}
			}
		}
		JOINT RightUpLeg
		{
			OFFSET 0.103456 1.857828 -10.548503
			CHANNELS 3 Zrotation Yrotation Xrotation
			JOINT RightLeg
			{
				OFFSET 43.500042 -0.000019 0.000010
				CHANNELS 3 Zrotation Yrotation Xrotation
				JOINT RightFoot
				{
					OFFSET 42.372253 0.000000 0.000013
					CHANNELS 3 Zrotation Yrotation Xrotation
					JOINT RightToe
					{
						OFFSET 17.299976 -0.000010 0.000008
						CHANNELS 3 Zrotation Yrotation Xrotation
						End Site
						{
							OFFSET 0.000000 0.000000 0.000000
						}
					}
				}
			}
		}
		JOINT Spine
		{
			OFFSET 6.901965 -2.603735 -0.000001
			CHANNELS 3 Zrotation Yrotation Xrotation
			JOINT Spine1
			{
				OFFSET 12.588106 -0.000003 0.000000
				CHANNELS 3 Zrotation Yrotation Xrotation
				JOINT Spine2
				{
					OFFSET 12.343198 0.000019 -0.000002
					CHANNELS 3 Zrotation Yrotation Xrotation
					JOINT Neck
					{
						OFFSET 25.832905 -0.000013 0.000001
						CHANNELS 3 Zrotation Yrotation Xrotation
						JOINT Head
						{
							OFFSET 11.766598 0.000013 -0.000001
							CHANNELS 3 Zrotation Yrotation Xrotation
							End Site
							{
								OFFSET 0.000000 0.000000 0.000000
							}
						}
					}
					JOINT LeftShoulder
					{
						OFFSET 19.745911 -1.480387 6.000106
						CHANNELS 3 Zrotation Yrotation Xrotation
						JOINT LeftArm
						{
							OFFSET 11.284126 -0.000005 -0.000031
							CHANNELS 3 Zrotation Yrotation Xrotation
							JOINT LeftForeArm
							{
								OFFSET 33.000053 -0.000022 0.000026
								CHANNELS 3 Zrotation Yrotation Xrotation
								JOINT LeftHand
								{
									OFFSET 25.200005 0.000041 0.000016
									CHANNELS 3 Zrotation Yrotation Xrotation
									End Site
									{
										OFFSET 0.000000 0.000000 0.000000
									}
								}
							}
						}
					}
					JOINT RightShoulder
					{
						OFFSET 19.746105 -1.480383 -6.000075
						CHANNELS 3 Zrotation Yrotation Xrotation
						JOINT RightArm
						{
							OFFSET 11.284141 -0.000009 -0.000009
							CHANNELS 3 Zrotation Yrotation Xrotation
							JOINT RightForeArm
							{
								OFFSET 33.000092 0.000011 0.000021
								CHANNELS 3 Zrotation Yrotation Xrotation
								JOINT RightHand
								{
									OFFSET 25.199780 0.000133 0.000423
									CHANNELS 3 Zrotation Yrotation Xrotation
									End Site
									{
										OFFSET 0.000000 0.000000 0.000000
									}
								}
							}
						}
					}
				}
			}
		}
	}
}
MOTION
Frames: 9
Frame Time: 0.016667
-19.064823 0.000000 -330.362805 0.000000 260.889118 0.000000 1.668193 91.300714 -1.525260 96.760752 -0.995800 179.925994 -170.608636 -6.056461 173.564954 -46.155773 -2.281007 -0.819129 81.494847 0.208077 -1.776685 21.454555 0.003100 0.000000 172.981557 0.436742 -175.483208 -21.642725 1.607976 2.470831 79.514503 -2.292316 -2.022641 21.454558 -0.003119 -0.000019 7.936757 1.087015 -0.941149 5.844050 2.219853 -1.826802 5.525885 2.208914 -1.840178 10.505799 8.597283 0.855353 -11.219898 -6.385682 3.439023 -159.796922 -78.817811 -22.074497 -18.916243 60.472997 35.240302 -33.505594 -18.276618 1.512523 2.177093 -9.932994 1.626220 -178.395623 71.731572 3.006413 -2.642450 -50.925866 -38.884786 -29.959148 18.116837 -1.454354 6.663018 6.693208 -3.426961 
-18.747915 0.000000 -331.221133 0.000000 261.056891 0.000000 1.751145 91.207336 -1.512230 96.885160 -1.098289 179.859405 -169.847311 -6.086116 174.036253 -46.236811 -2.141776 -0.170559 81.108263 -0.284368 -1.916727 21.454555 0.003099 -0.000000 172.267835 0.631796 -175.423409 -22.215057 1.462374 2.488133 79.234203 -2.280440 -1.910898 21.454558 -0.003119 -0.000019 7.925387 1.002076 -0.933369 5.822604 2.049525 -1.815658 5.504476 2.038668 -1.828007 10.588587 8.689341 0.821227 -11.254095 -6.426701 3.418201 -159.909316 -78.898487 -21.958943 -19.302517 60.164109 34.490030 -34.510370 -18.638592 1.558786 2.071442 -10.048621 1.717966 -178.636371 71.718807 2.758504 -2.637740 -51.112057 -39.001359 -30.239961 18.170742 -1.463353 6.595517 6.700413 -3.615225 
-18.400432 0.000000 -332.107391 0.000000 261.203619 0.000000 1.851252 91.088136 -1.488409 97.024798 -1.241420 179.786706 -169.127290 -6.044820 174.485439 -46.059304 -2.023861 0.537007 80.387635 -0.757896 -1.783471 21.454547 0.003092 0.000002 171.485038 0.873476 -175.314324 -22.928443 1.275695 2.459271 79.002423 -2.232470 -1.792941 21.454557 -0.003106 -0.000018 7.925451 0.909229 -0.921560 5.824204 1.863381 -1.796641 5.506107 1.852651 -1.807862 10.591815 8.580781 0.768394 -11.250500 -6.312293 3.320091 -159.767499 -78.964167 -22.102311 -19.813764 59.871575 33.664124 -35.506580 -18.950059 1.602303 1.935481 -10.171127 1.827252 -178.954705 71.806613 2.432434 -2.688060 -51.373517 -39.115160 -30.572322 18.278575 -1.476903 6.514902 6.640832 -3.809287 
-18.022630 0.000000 -333.022585 0.000000 261.326526 0.000000 1.959345 90.941223 -1.459163 97.209346 -1.396766 179.733963 -168.441645 -5.962207 174.957345 -45.545664 -1.914024 1.241937 78.948967 -1.297351 -1.865918 21.454541 0.003085 0.000004 170.699473 1.144507 -175.208955 -23.703022 1.089802 2.424950 78.797931 -2.176646 -1.664977 21.454558 -0.003094 -0.000016 7.943316 0.812926 -0.912556 5.861399 1.670743 -1.783141 5.543329 1.660098 -1.793196 10.594021 8.334152 0.721307 -11.266963 -6.098678 3.189367 -159.461009 -78.985230 -22.413863 -20.422031 59.557861 32.806548 -36.467349 -19.226571 1.643100 1.688941 -10.342999 1.883075 -179.415313 71.964700 1.961304 -2.795381 -51.682090 -39.181198 -30.973722 18.426746 -1.494579 6.412088 6.560415 -4.020420 
-17.615103 0.000000 -333.967147 0.000000 261.423348 0.000000 2.066159 90.765596 -1.428996 97.460579 -1.532697 179.725053 -167.789062 -5.879775 175.489462 -44.633227 -1.809407 1.893070 76.676359 -2.001966 -2.588156 21.454542 0.003086 0.000006 169.970963 1.421277 -175.163385 -24.456248 0.947806 2.426482 78.595460 -2.142557 -1.523375 21.454560 -0.003097 -0.000016 7.982680 0.716840 -0.911004 5.941488 1.479231 -1.784290 5.623443 1.468571 -1.793189 10.680720 8.065053 0.703601 -11.352177 -5.883521 3.085161 -159.170608 -78.955709 -22.709794 -21.060391 59.193867 31.965384 -37.390488 -19.488214 1.682817 1.275838 -10.608283 1.829720 179.953292 72.138781 1.315070 -2.958374 -51.992096 -39.167622 -31.464313 18.600367 -1.515868 6.272723 6.518416 -4.260867 
-17.178475 0.000000 -334.940929 0.000000 261.492392 0.000000 2.181572 90.568581 -1.390186 97.744887 -1.659018 179.762160 -167.155001 -5.805799 176.054041 -43.289977 -1.784605 2.515520 74.519487 -2.719716 -3.323745 21.454550 0.003091 0.000005 169.281198 1.704102 -175.185582 -25.170709 0.850303 2.468007 78.380613 -2.134708 -1.372389 21.454562 -0.003105 -0.000016 8.034498 0.617788 -0.913045 6.046499 1.282164 -1.792776 5.728482 1.271449 -1.800484 10.795432 7.866287 0.702588 -11.413398 -5.710046 3.012653 -159.038631 -78.921477 -22.844623 -21.638617 58.800017 31.145064 -38.340207 -19.725689 1.722442 0.789872 -11.049700 1.822280 179.343665 72.280883 0.691003 -3.177985 -52.262697 -39.117097 -32.066600 18.805570 -1.541761 6.099516 6.543241 -4.543645 
-16.713552 0.000000 -335.943914 0.000000 261.532694 0.000000 2.310308 90.356434 -1.335364 98.017334 -1.780807 179.843401 -166.545428 -5.750080 176.607199 -41.579503 -1.902987 3.138339 73.419335 -3.229624 -3.437022 21.454557 0.003094 0.000002 168.592197 1.988394 -175.261711 -25.837446 0.786812 2.541857 78.136136 -2.148920 -1.216729 21.454560 -0.003105 -0.000016 8.087613 0.515478 -0.913149 6.154187 1.078519 -1.797766 5.836205 1.067786 -1.804236 10.875855 7.786291 0.697321 -11.370299 -5.593559 2.957849 -159.153535 -78.923320 -22.727689 -22.099002 58.404318 30.347500 -39.365846 -19.926650 1.762346 0.344945 -11.694572 2.003902 178.954275 72.360659 0.292401 -3.442058 -52.462411 -39.073282 -32.802604 19.052608 -1.573730 5.907059 6.637577 -4.881356 
-16.221070 0.000000 -336.976582 0.000000 261.544077 0.000000 2.416968 90.122818 -1.270189 98.242687 -1.842397 179.974084 -166.061788 -5.762895 177.104701 -39.913504 -2.097224 3.746055 73.294902 -3.575661 -3.165357 21.454560 0.003095 -0.000001 167.865395 2.225205 -175.336502 -26.416673 0.745824 2.628733 77.822471 -2.171266 -1.055004 21.454558 -0.003103 -0.000017 8.135221 0.428072 -0.907674 6.250708 0.904280 -1.791050 5.932750 0.893600 -1.796463 10.977177 7.718888 0.666333 -11.333076 -5.493221 2.881153 -159.445519 -78.929640 -22.430496 -22.522667 58.012264 29.623790 -40.390736 -20.096341 1.800866 -0.003168 -12.320639 2.254524 178.743619 72.402023 0.076800 -3.688558 -52.591715 -39.005031 -33.689521 19.347349 -1.612273 5.741556 6.732444 -5.283253 
-15.700524 0.000000 -338.039527 0.000000 261.526865 0.000000 2.467388 89.862512 -1.200660 98.400246 -1.794742 -179.841128 -165.787888 -5.876691 177.519747 -38.670645 -2.288800 4.299317 73.893059 -3.845375 -2.848549 21.454554 0.003094 -0.000000 167.079163 2.371844 -175.356522 -26.864800 0.711801 2.709961 77.400242 -2.189214 -0.890629 21.454557 -0.003104 -0.000018 8.174399 0.371949 -0.895147 6.329973 0.792039 -1.768727 6.012015 0.781492 -1.773466 11.156810 7.553151 0.596130 -11.416811 -5.361345 2.749029 -159.815450 -78.898448 -22.054513 -23.008920 57.621560 29.015909 -41.323103 -20.238381 1.835698 -0.238620 -12.718782 2.396916 178.599410 72.435738 -0.070711 -3.866132 -52.658252 -38.869763 -34.727203 19.686472 -1.657605 5.636118 6.774051 -5.746249 
